<svg xmlns="http://www.w3.org/2000/svg" viewBox="0 0 120 120">
  <defs>
    <linearGradient id="a-bg" x1="0" y1="0" x2="1" y2="1">
      <stop offset="0" stop-color="#23232B"/>
      <stop offset="0.5" stop-color="#111111"/>
      <stop offset="1" stop-color="#331414"/>
    </linearGradient>
    <radialGradient id="a-glow" cx="0.5" cy="0.38" r="0.72">
      <stop offset="0" stop-color="#B7CCE3" stop-opacity="0.6"/>
      <stop offset="0.5" stop-color="#8DA1B9" stop-opacity="0.22"/>
      <stop offset="0.78" stop-color="#721010" stop-opacity="0.32"/>
      <stop offset="1" stop-color="#111111" stop-opacity="0"/>
    </radialGradient>
    <linearGradient id="a-sheen" x1="0" y1="0" x2="1" y2="0">
      <stop offset="0" stop-color="#FFFFFF" stop-opacity="0"/>
      <stop offset="0.5" stop-color="#B7CCE3" stop-opacity="0.28"/>
      <stop offset="1" stop-color="#FFFFFF" stop-opacity="0"/>
    </linearGradient>
    <filter id="a-mark" x="-40%" y="-40%" width="180%" height="180%">
      <feDropShadow dx="0" dy="0" stdDeviation="3" flood-color="#B7CCE3" flood-opacity="0.7"/>
      <feDropShadow dx="0" dy="0" stdDeviation="7" flood-color="#721010" flood-opacity="0.5"/>
    </filter>
  </defs>
  <rect width="120" height="120" rx="28" fill="url(#a-bg)"/>
  <rect width="120" height="120" rx="28" fill="url(#a-glow)"/>
  <rect x="8" y="6" width="104" height="10" rx="5" fill="url(#a-sheen)"/>
  <rect x="0.75" y="0.75" width="118.5" height="118.5" rx="27.25" fill="none" stroke="#8DA1B9" stroke-opacity="0.4" stroke-width="1.2"/>
  <g transform="translate(26,26) scale(0.55) rotate(-18 32 32)" filter="url(#a-mark)">
    <path d="M14 18h14v8H24l-2 12 12 2 2-8h12l-3 16a4 4 0 0 1-3 3L22 56a4 4 0 0 1-4-3L14 18Z" fill="#fff"/>
    <path d="M50 8H30v8h12l2 12-12 2-2-8H18l3 16a4 4 0 0 0 3 3l20 3a4 4 0 0 0 4-3L50 8Z" fill="#fff"/>
  </g>
</svg>
